<?xml version="1.0" encoding="utf-8"?>
<!-- Generator: Adobe Illustrator 21.1.0, SVG Export Plug-In . SVG Version: 6.00 Build 0)  -->
<svg version="1.1" id="Layer_1" xmlns="http://www.w3.org/2000/svg" xmlns:xlink="http://www.w3.org/1999/xlink" x="0px" y="0px"
	 viewBox="0 0 257.6 52" style="enable-background:new 0 0 257.6 52;" xml:space="preserve">
<style type="text/css">
	.st0{fill:#62a8ea;}
</style>
<g>
	<path class="st0" d="M22.1,14.7v33.1h-7.8V14.7H3.8v-7h28.8v7H22.1z"/>
	<path class="st0" d="M50.6,44.6c-1.8,1.9-4.8,3.6-9.1,3.6c-4.3,0-7.3-1.7-9.1-3.6c-2.6-2.8-3.3-6.1-3.3-11.4
		c0-5.3,0.7-8.6,3.3-11.4c1.8-1.9,4.7-3.6,9.1-3.6c4.3,0,7.3,1.7,9.1,3.6c2.6,2.8,3.3,6.1,3.3,11.4C53.9,38.5,53.2,41.8,50.6,44.6z
		 M44.9,26c-0.8-0.8-2-1.3-3.4-1.3c-1.5,0-2.5,0.5-3.4,1.3c-1.5,1.5-1.7,4.1-1.7,7.1c0,3,0.2,5.6,1.7,7.2c0.8,0.8,1.9,1.3,3.4,1.3
		c1.5,0,2.6-0.5,3.4-1.3c1.5-1.5,1.7-4.1,1.7-7.2C46.6,30.1,46.4,27.6,44.9,26z"/>
	<path class="st0" d="M74.1,47.8v-2.7c-1.9,2-4.6,3-7.3,3c-2.9,0-5.3-1-6.9-2.6c-2.4-2.4-3-5.1-3-8.3V18.5h7.3v17.7
		c0,4,2.5,5.3,4.8,5.3c2.3,0,4.9-1.4,4.9-5.3V18.5h7.3v29.3H74.1z"/>
	<path class="st0" d="M97.3,48.2c-5.9,0-13.1-3.2-13.1-15c0-11.9,7.3-15,13.1-15c4.1,0,7.1,1.2,9.7,3.9l-5,5
		c-1.5-1.6-2.8-2.3-4.7-2.3c-1.7,0-3.1,0.6-4.2,1.9c-1.1,1.4-1.6,3.4-1.6,6.5s0.5,5.1,1.6,6.5c1.1,1.3,2.4,1.9,4.2,1.9
		c1.9,0,3.2-0.7,4.7-2.3l5,4.9C104.4,46.9,101.4,48.2,97.3,48.2z"/>
	<path class="st0" d="M125.9,47.8V29.9c0-3.9-2.5-5.2-4.8-5.2c-2.3,0-4.7,1.4-4.7,5.2v17.9h-7.3V7.7h7.3v13.5c2-2,4.4-3,7-3
		c6.4,0,9.8,4.5,9.8,10.7v19H125.9z"/>
	<path class="st0" d="M149.7,48.2c-6.1,0-10.7-1.3-14.6-5.3l5.1-5.1c2.5,2.5,6,3.4,9.7,3.4c4.6,0,7.1-1.7,7.1-5
		c0-1.4-0.4-2.6-1.2-3.4c-0.8-0.7-1.7-1.1-3.5-1.4l-4.8-0.7c-3.4-0.5-6-1.6-7.8-3.3c-1.9-1.9-2.9-4.5-2.9-7.9
		c0-7.2,5.3-12.2,14-12.2c5.5,0,9.5,1.4,13,4.7l-5,4.9c-2.5-2.4-5.6-2.8-8.2-2.8c-4.2,0-6.2,2.3-6.2,5.1c0,1,0.3,2.1,1.2,2.9
		c0.8,0.7,2.1,1.4,3.7,1.6l4.7,0.7c3.7,0.5,6,1.5,7.7,3.1c2.1,2,3.1,5,3.1,8.5C164.6,43.8,158.1,48.2,149.7,48.2z"/>
	<path class="st0" d="M184.4,47.8v-2.7c-1.9,2-4.6,3-7.3,3c-2.9,0-5.3-1-6.9-2.6c-2.4-2.4-3-5.1-3-8.3V18.5h7.3v17.7
		c0,4,2.5,5.3,4.8,5.3c2.3,0,4.9-1.4,4.9-5.3V18.5h7.3v29.3H184.4z"/>
	<path class="st0" d="M195.8,13.5v-6h7.5v6H195.8z M195.9,47.8V18.5h7.3v29.3H195.9z"/>
	<path class="st0" d="M216.8,47.8c-6,0-8.5-4.2-8.5-8.4V24.9h-3.1v-5.6h3.1v-8.7h7.3v8.7h5.2v5.6h-5.2V39c0,1.7,0.8,2.6,2.5,2.6h2.6
		v6.2H216.8z"/>
	<path class="st0" d="M229.2,35.4c0,3.8,2.3,6.5,6.4,6.5c3.2,0,4.8-0.9,6.6-2.8l4.4,4.3c-3,3-5.9,4.6-11.1,4.6
		c-6.9,0-13.6-3.2-13.6-15c0-9.6,5.2-15,12.8-15c8.2,0,12.8,6,12.8,14v3.3H229.2z M239.7,27.3c-0.8-1.7-2.4-3-4.9-3
		c-2.5,0-4.1,1.3-4.9,3c-0.5,1.1-0.6,1.9-0.7,3.2h11.1C240.3,29.1,240.1,28.4,239.7,27.3z"/>
</g>
<g>
	<path class="st0" d="M247.6,15.2c0.5,0,1,0.1,1.5,0.4c0.5,0.3,0.8,0.6,1.1,1.1c0.3,0.5,0.4,1,0.4,1.5c0,0.5-0.1,1-0.4,1.5
		c-0.3,0.5-0.6,0.8-1.1,1.1c-0.5,0.3-1,0.4-1.5,0.4c-0.5,0-1-0.1-1.5-0.4c-0.5-0.3-0.8-0.6-1.1-1.1c-0.3-0.5-0.4-1-0.4-1.5
		c0-0.5,0.1-1,0.4-1.5c0.3-0.5,0.6-0.8,1.1-1.1C246.6,15.3,247.1,15.2,247.6,15.2z M247.6,15.7c-0.4,0-0.8,0.1-1.2,0.3
		c-0.4,0.2-0.7,0.5-0.9,0.9c-0.2,0.4-0.3,0.8-0.3,1.2c0,0.4,0.1,0.8,0.3,1.2c0.2,0.4,0.5,0.7,0.9,0.9c0.4,0.2,0.8,0.3,1.2,0.3
		c0.4,0,0.8-0.1,1.2-0.3c0.4-0.2,0.7-0.5,0.9-0.9c0.2-0.4,0.3-0.8,0.3-1.2c0-0.4-0.1-0.8-0.3-1.2c-0.2-0.4-0.5-0.7-0.9-0.9
		C248.4,15.8,248,15.7,247.6,15.7z M246.3,19.8v-3.2h1.1c0.4,0,0.6,0,0.8,0.1c0.2,0.1,0.3,0.2,0.4,0.3c0.1,0.1,0.1,0.3,0.1,0.5
		c0,0.2-0.1,0.4-0.2,0.6c-0.2,0.2-0.4,0.3-0.7,0.3c0.1,0,0.2,0.1,0.3,0.2c0.1,0.1,0.3,0.3,0.5,0.6l0.4,0.6h-0.6l-0.3-0.5
		c-0.2-0.4-0.4-0.6-0.5-0.7c-0.1-0.1-0.2-0.1-0.4-0.1h-0.3v1.4H246.3z M246.8,18h0.6c0.3,0,0.5,0,0.6-0.1c0.1-0.1,0.2-0.2,0.2-0.4
		c0-0.1,0-0.2-0.1-0.3c-0.1-0.1-0.1-0.1-0.2-0.2c-0.1,0-0.3-0.1-0.5-0.1h-0.6V18z"/>
</g>
</svg>
